<mxfile host="app.diagrams.net" modified="2020-05-12T09:32:27.059Z" agent="5.0 (Macintosh; Intel Mac OS X 10_15_3) AppleWebKit/605.1.15 (KHTML, like Gecko) Version/13.0.5 Safari/605.1.15" etag="xYJ6O-11MheRYneHNOZ3" version="13.0.9" type="github" pages="3">
  <diagram id="lMOEVmP46kw-Q3MR-4EZ" name="指派类">
    <mxGraphModel dx="946" dy="662" grid="1" gridSize="10" guides="1" tooltips="1" connect="1" arrows="1" fold="1" page="1" pageScale="1" pageWidth="827" pageHeight="1169" math="0" shadow="0">
      <root>
        <mxCell id="-ip9UiHMlv0S3Lb2J4Iv-0" />
        <mxCell id="-ip9UiHMlv0S3Lb2J4Iv-1" parent="-ip9UiHMlv0S3Lb2J4Iv-0" />
      </root>
    </mxGraphModel>
  </diagram>
  <diagram id="IR5nnEEt4pup9db6mSAV" name="问题类">
    <mxGraphModel dx="946" dy="662" grid="1" gridSize="10" guides="1" tooltips="1" connect="1" arrows="1" fold="1" page="1" pageScale="1" pageWidth="827" pageHeight="1169" math="0" shadow="0">
      <root>
        <mxCell id="GfNe0graUKKFYDKORFNM-0" />
        <mxCell id="GfNe0graUKKFYDKORFNM-1" parent="GfNe0graUKKFYDKORFNM-0" />
      </root>
    </mxGraphModel>
  </diagram>
  <diagram id="C5RBs43oDa-KdzZeNtuy" name="需求类">
    <mxGraphModel dx="946" dy="662" grid="1" gridSize="10" guides="1" tooltips="1" connect="1" arrows="1" fold="1" page="1" pageScale="1" pageWidth="827" pageHeight="1169" math="0" shadow="0">
      <root>
        <mxCell id="WIyWlLk6GJQsqaUBKTNV-0" />
        <mxCell id="WIyWlLk6GJQsqaUBKTNV-1" parent="WIyWlLk6GJQsqaUBKTNV-0" />
        <mxCell id="WIyWlLk6GJQsqaUBKTNV-4" value="Yes" style="rounded=0;html=1;jettySize=auto;orthogonalLoop=1;fontSize=11;endArrow=block;endFill=0;endSize=8;strokeWidth=1;shadow=0;labelBackgroundColor=none;edgeStyle=orthogonalEdgeStyle;" parent="WIyWlLk6GJQsqaUBKTNV-1" source="yaHILEcvflSN7Z8Lj7LH-5" edge="1">
          <mxGeometry x="0.76" y="-14" relative="1" as="geometry">
            <mxPoint x="14" y="-14" as="offset" />
            <mxPoint x="220" y="400" as="targetPoint" />
            <Array as="points">
              <mxPoint x="220" y="394" />
            </Array>
          </mxGeometry>
        </mxCell>
        <mxCell id="WIyWlLk6GJQsqaUBKTNV-5" value="No" style="edgeStyle=orthogonalEdgeStyle;rounded=0;html=1;jettySize=auto;orthogonalLoop=1;fontSize=11;endArrow=block;endFill=0;endSize=8;strokeWidth=1;shadow=0;labelBackgroundColor=none;entryX=1;entryY=0.5;entryDx=0;entryDy=0;" parent="WIyWlLk6GJQsqaUBKTNV-1" source="WIyWlLk6GJQsqaUBKTNV-6" target="yaHILEcvflSN7Z8Lj7LH-1" edge="1">
          <mxGeometry x="-0.8333" relative="1" as="geometry">
            <mxPoint as="offset" />
            <mxPoint x="320" y="310" as="targetPoint" />
            <Array as="points">
              <mxPoint x="570" y="220" />
              <mxPoint x="570" y="1550" />
            </Array>
          </mxGeometry>
        </mxCell>
        <mxCell id="WIyWlLk6GJQsqaUBKTNV-6" value="需求评审" style="rhombus;whiteSpace=wrap;html=1;shadow=0;fontFamily=Helvetica;fontSize=12;align=center;strokeWidth=1;spacing=6;spacingTop=-4;" parent="WIyWlLk6GJQsqaUBKTNV-1" vertex="1">
          <mxGeometry x="170" y="180" width="100" height="80" as="geometry" />
        </mxCell>
        <mxCell id="yaHILEcvflSN7Z8Lj7LH-0" value="接到需求" style="ellipse;whiteSpace=wrap;html=1;" vertex="1" parent="WIyWlLk6GJQsqaUBKTNV-1">
          <mxGeometry x="160" y="20" width="120" height="60" as="geometry" />
        </mxCell>
        <mxCell id="yaHILEcvflSN7Z8Lj7LH-1" value="结束" style="ellipse;whiteSpace=wrap;html=1;" vertex="1" parent="WIyWlLk6GJQsqaUBKTNV-1">
          <mxGeometry x="162.5" y="1510" width="120" height="80" as="geometry" />
        </mxCell>
        <mxCell id="yaHILEcvflSN7Z8Lj7LH-2" value="认真阅读需求&lt;br&gt;（做到心中有数）" style="rounded=1;whiteSpace=wrap;html=1;" vertex="1" parent="WIyWlLk6GJQsqaUBKTNV-1">
          <mxGeometry x="160" y="100" width="120" height="60" as="geometry" />
        </mxCell>
        <mxCell id="yaHILEcvflSN7Z8Lj7LH-3" value="技术方案评审" style="rhombus;whiteSpace=wrap;html=1;shadow=0;fontFamily=Helvetica;fontSize=12;align=center;strokeWidth=1;spacing=6;spacingTop=-4;" vertex="1" parent="WIyWlLk6GJQsqaUBKTNV-1">
          <mxGeometry x="170" y="400" width="100" height="60" as="geometry" />
        </mxCell>
        <mxCell id="yaHILEcvflSN7Z8Lj7LH-5" value="制定技术方案" style="rounded=1;whiteSpace=wrap;html=1;" vertex="1" parent="WIyWlLk6GJQsqaUBKTNV-1">
          <mxGeometry x="160" y="310" width="120" height="40" as="geometry" />
        </mxCell>
        <mxCell id="yaHILEcvflSN7Z8Lj7LH-6" value="Yes" style="rounded=0;html=1;jettySize=auto;orthogonalLoop=1;fontSize=11;endArrow=block;endFill=0;endSize=8;strokeWidth=1;shadow=0;labelBackgroundColor=none;edgeStyle=orthogonalEdgeStyle;" edge="1" parent="WIyWlLk6GJQsqaUBKTNV-1" source="WIyWlLk6GJQsqaUBKTNV-6" target="yaHILEcvflSN7Z8Lj7LH-5">
          <mxGeometry x="-0.2" relative="1" as="geometry">
            <mxPoint as="offset" />
            <mxPoint x="220" y="260" as="sourcePoint" />
            <mxPoint x="220" y="400" as="targetPoint" />
            <Array as="points" />
          </mxGeometry>
        </mxCell>
        <mxCell id="yaHILEcvflSN7Z8Lj7LH-8" value="No" style="rounded=0;html=1;jettySize=auto;orthogonalLoop=1;fontSize=11;endArrow=block;endFill=0;endSize=8;strokeWidth=1;shadow=0;labelBackgroundColor=none;edgeStyle=orthogonalEdgeStyle;entryX=1;entryY=0.5;entryDx=0;entryDy=0;exitX=1;exitY=0.5;exitDx=0;exitDy=0;" edge="1" parent="WIyWlLk6GJQsqaUBKTNV-1" source="yaHILEcvflSN7Z8Lj7LH-3" target="yaHILEcvflSN7Z8Lj7LH-1">
          <mxGeometry x="-0.817" relative="1" as="geometry">
            <mxPoint as="offset" />
            <mxPoint x="230" y="360" as="sourcePoint" />
            <mxPoint x="230" y="410" as="targetPoint" />
            <Array as="points">
              <mxPoint x="540" y="430" />
              <mxPoint x="540" y="1550" />
            </Array>
          </mxGeometry>
        </mxCell>
        <mxCell id="0x8TttNXPmQkc74vw-VQ-2" value="确定排期" style="rounded=1;whiteSpace=wrap;html=1;" vertex="1" parent="WIyWlLk6GJQsqaUBKTNV-1">
          <mxGeometry x="160" y="500" width="120" height="40" as="geometry" />
        </mxCell>
        <mxCell id="0x8TttNXPmQkc74vw-VQ-3" value="工程or迭代" style="rhombus;whiteSpace=wrap;html=1;" vertex="1" parent="WIyWlLk6GJQsqaUBKTNV-1">
          <mxGeometry x="170" y="585" width="100" height="80" as="geometry" />
        </mxCell>
        <mxCell id="0x8TttNXPmQkc74vw-VQ-4" value="概要设计+详细设计" style="rounded=1;whiteSpace=wrap;html=1;" vertex="1" parent="WIyWlLk6GJQsqaUBKTNV-1">
          <mxGeometry x="60" y="700" width="110" height="40" as="geometry" />
        </mxCell>
        <mxCell id="0x8TttNXPmQkc74vw-VQ-5" value="迭代设计" style="rounded=1;whiteSpace=wrap;html=1;" vertex="1" parent="WIyWlLk6GJQsqaUBKTNV-1">
          <mxGeometry x="290" y="700" width="120" height="40" as="geometry" />
        </mxCell>
        <mxCell id="0x8TttNXPmQkc74vw-VQ-6" value="组内设计评审" style="rounded=1;whiteSpace=wrap;html=1;" vertex="1" parent="WIyWlLk6GJQsqaUBKTNV-1">
          <mxGeometry x="170" y="800" width="110" height="40" as="geometry" />
        </mxCell>
        <mxCell id="0x8TttNXPmQkc74vw-VQ-7" value="基于master分支&lt;br&gt;拉新开发分支代码开发" style="rounded=1;whiteSpace=wrap;html=1;" vertex="1" parent="WIyWlLk6GJQsqaUBKTNV-1">
          <mxGeometry x="165" y="880" width="120" height="50" as="geometry" />
        </mxCell>
        <mxCell id="0x8TttNXPmQkc74vw-VQ-8" value="单元测试" style="rounded=1;whiteSpace=wrap;html=1;" vertex="1" parent="WIyWlLk6GJQsqaUBKTNV-1">
          <mxGeometry x="165" y="970" width="125" height="40" as="geometry" />
        </mxCell>
        <mxCell id="0x8TttNXPmQkc74vw-VQ-9" value="本地自测" style="rounded=1;whiteSpace=wrap;html=1;" vertex="1" parent="WIyWlLk6GJQsqaUBKTNV-1">
          <mxGeometry x="165" y="1040" width="120" height="40" as="geometry" />
        </mxCell>
        <mxCell id="0x8TttNXPmQkc74vw-VQ-10" value="提交MR请求&lt;br&gt;组内review代码" style="rounded=1;whiteSpace=wrap;html=1;" vertex="1" parent="WIyWlLk6GJQsqaUBKTNV-1">
          <mxGeometry x="165" y="1110" width="120" height="40" as="geometry" />
        </mxCell>
        <mxCell id="0x8TttNXPmQkc74vw-VQ-11" value="QA测试" style="rounded=1;whiteSpace=wrap;html=1;" vertex="1" parent="WIyWlLk6GJQsqaUBKTNV-1">
          <mxGeometry x="160" y="1190" width="125" height="40" as="geometry" />
        </mxCell>
        <mxCell id="0x8TttNXPmQkc74vw-VQ-13" value="Yes" style="rounded=0;html=1;jettySize=auto;orthogonalLoop=1;fontSize=11;endArrow=block;endFill=0;endSize=8;strokeWidth=1;shadow=0;labelBackgroundColor=none;edgeStyle=orthogonalEdgeStyle;exitX=0.5;exitY=1;exitDx=0;exitDy=0;entryX=0.5;entryY=0;entryDx=0;entryDy=0;" edge="1" parent="WIyWlLk6GJQsqaUBKTNV-1" source="yaHILEcvflSN7Z8Lj7LH-3" target="0x8TttNXPmQkc74vw-VQ-2">
          <mxGeometry x="0.76" y="-14" relative="1" as="geometry">
            <mxPoint x="14" y="-14" as="offset" />
            <mxPoint x="390" y="560" as="sourcePoint" />
            <mxPoint x="390" y="630" as="targetPoint" />
            <Array as="points">
              <mxPoint x="220" y="470" />
              <mxPoint x="220" y="470" />
            </Array>
          </mxGeometry>
        </mxCell>
        <mxCell id="0x8TttNXPmQkc74vw-VQ-14" value="" style="rounded=0;html=1;jettySize=auto;orthogonalLoop=1;fontSize=11;endArrow=block;endFill=0;endSize=8;strokeWidth=1;shadow=0;labelBackgroundColor=none;edgeStyle=orthogonalEdgeStyle;" edge="1" parent="WIyWlLk6GJQsqaUBKTNV-1">
          <mxGeometry x="0.76" y="-14" relative="1" as="geometry">
            <mxPoint x="14" y="-14" as="offset" />
            <mxPoint x="219.5" y="540" as="sourcePoint" />
            <mxPoint x="220" y="590" as="targetPoint" />
            <Array as="points">
              <mxPoint x="219.5" y="570" />
              <mxPoint x="219.5" y="570" />
            </Array>
          </mxGeometry>
        </mxCell>
        <mxCell id="0x8TttNXPmQkc74vw-VQ-16" value="" style="rounded=0;html=1;jettySize=auto;orthogonalLoop=1;fontSize=11;endArrow=block;endFill=0;endSize=8;strokeWidth=1;shadow=0;labelBackgroundColor=none;edgeStyle=orthogonalEdgeStyle;entryX=0;entryY=0.5;entryDx=0;entryDy=0;" edge="1" parent="WIyWlLk6GJQsqaUBKTNV-1" target="0x8TttNXPmQkc74vw-VQ-6">
          <mxGeometry x="0.76" y="-14" relative="1" as="geometry">
            <mxPoint x="14" y="-14" as="offset" />
            <mxPoint x="114.5" y="740" as="sourcePoint" />
            <mxPoint x="114.5" y="810" as="targetPoint" />
            <Array as="points">
              <mxPoint x="115" y="820" />
            </Array>
          </mxGeometry>
        </mxCell>
        <mxCell id="0x8TttNXPmQkc74vw-VQ-17" value="迭代" style="rounded=0;html=1;jettySize=auto;orthogonalLoop=1;fontSize=11;endArrow=block;endFill=0;endSize=8;strokeWidth=1;shadow=0;labelBackgroundColor=none;edgeStyle=orthogonalEdgeStyle;entryX=0.5;entryY=0;entryDx=0;entryDy=0;exitX=1;exitY=0.5;exitDx=0;exitDy=0;" edge="1" parent="WIyWlLk6GJQsqaUBKTNV-1" source="0x8TttNXPmQkc74vw-VQ-3" target="0x8TttNXPmQkc74vw-VQ-5">
          <mxGeometry x="0.76" y="-14" relative="1" as="geometry">
            <mxPoint x="14" y="-14" as="offset" />
            <mxPoint x="270" y="660" as="sourcePoint" />
            <mxPoint x="270" y="730" as="targetPoint" />
            <Array as="points">
              <mxPoint x="350" y="625" />
            </Array>
          </mxGeometry>
        </mxCell>
        <mxCell id="0x8TttNXPmQkc74vw-VQ-18" value="工程" style="rounded=0;html=1;jettySize=auto;orthogonalLoop=1;fontSize=11;endArrow=block;endFill=0;endSize=8;strokeWidth=1;shadow=0;labelBackgroundColor=none;edgeStyle=orthogonalEdgeStyle;entryX=0.5;entryY=0;entryDx=0;entryDy=0;" edge="1" parent="WIyWlLk6GJQsqaUBKTNV-1" target="0x8TttNXPmQkc74vw-VQ-4">
          <mxGeometry x="0.76" y="-14" relative="1" as="geometry">
            <mxPoint x="14" y="-14" as="offset" />
            <mxPoint x="169" y="620" as="sourcePoint" />
            <mxPoint x="169" y="740" as="targetPoint" />
            <Array as="points">
              <mxPoint x="169" y="630" />
              <mxPoint x="115" y="630" />
            </Array>
          </mxGeometry>
        </mxCell>
        <mxCell id="0x8TttNXPmQkc74vw-VQ-19" value="Yes" style="rounded=0;html=1;jettySize=auto;orthogonalLoop=1;fontSize=11;endArrow=block;endFill=0;endSize=8;strokeWidth=1;shadow=0;labelBackgroundColor=none;edgeStyle=orthogonalEdgeStyle;" edge="1" parent="WIyWlLk6GJQsqaUBKTNV-1">
          <mxGeometry x="0.76" y="-14" relative="1" as="geometry">
            <mxPoint x="14" y="-14" as="offset" />
            <mxPoint x="650" y="680" as="sourcePoint" />
            <mxPoint x="650" y="750" as="targetPoint" />
            <Array as="points">
              <mxPoint x="650" y="640" />
              <mxPoint x="650" y="640" />
            </Array>
          </mxGeometry>
        </mxCell>
        <mxCell id="0x8TttNXPmQkc74vw-VQ-20" value="Yes" style="rounded=0;html=1;jettySize=auto;orthogonalLoop=1;fontSize=11;endArrow=block;endFill=0;endSize=8;strokeWidth=1;shadow=0;labelBackgroundColor=none;edgeStyle=orthogonalEdgeStyle;" edge="1" parent="WIyWlLk6GJQsqaUBKTNV-1">
          <mxGeometry x="0.76" y="-14" relative="1" as="geometry">
            <mxPoint x="14" y="-14" as="offset" />
            <mxPoint x="660" y="690" as="sourcePoint" />
            <mxPoint x="660" y="760" as="targetPoint" />
            <Array as="points">
              <mxPoint x="660" y="650" />
              <mxPoint x="660" y="650" />
            </Array>
          </mxGeometry>
        </mxCell>
        <mxCell id="0x8TttNXPmQkc74vw-VQ-21" value="Yes" style="rounded=0;html=1;jettySize=auto;orthogonalLoop=1;fontSize=11;endArrow=block;endFill=0;endSize=8;strokeWidth=1;shadow=0;labelBackgroundColor=none;edgeStyle=orthogonalEdgeStyle;" edge="1" parent="WIyWlLk6GJQsqaUBKTNV-1">
          <mxGeometry x="0.76" y="-14" relative="1" as="geometry">
            <mxPoint x="14" y="-14" as="offset" />
            <mxPoint x="670" y="700" as="sourcePoint" />
            <mxPoint x="670" y="770" as="targetPoint" />
            <Array as="points">
              <mxPoint x="670" y="660" />
              <mxPoint x="670" y="660" />
            </Array>
          </mxGeometry>
        </mxCell>
        <mxCell id="0x8TttNXPmQkc74vw-VQ-22" value="" style="rounded=0;html=1;jettySize=auto;orthogonalLoop=1;fontSize=11;endArrow=block;endFill=0;endSize=8;strokeWidth=1;shadow=0;labelBackgroundColor=none;edgeStyle=orthogonalEdgeStyle;" edge="1" parent="WIyWlLk6GJQsqaUBKTNV-1">
          <mxGeometry x="0.76" y="-14" relative="1" as="geometry">
            <mxPoint x="14" y="-14" as="offset" />
            <mxPoint x="710" y="560" as="sourcePoint" />
            <mxPoint x="710" y="630" as="targetPoint" />
            <Array as="points">
              <mxPoint x="710" y="590" />
              <mxPoint x="710" y="590" />
            </Array>
          </mxGeometry>
        </mxCell>
        <mxCell id="0x8TttNXPmQkc74vw-VQ-23" value="" style="rounded=0;html=1;jettySize=auto;orthogonalLoop=1;fontSize=11;endArrow=block;endFill=0;endSize=8;strokeWidth=1;shadow=0;labelBackgroundColor=none;edgeStyle=orthogonalEdgeStyle;" edge="1" parent="WIyWlLk6GJQsqaUBKTNV-1">
          <mxGeometry x="0.76" y="-14" relative="1" as="geometry">
            <mxPoint x="14" y="-14" as="offset" />
            <mxPoint x="720" y="570" as="sourcePoint" />
            <mxPoint x="720" y="640" as="targetPoint" />
            <Array as="points">
              <mxPoint x="720" y="600" />
              <mxPoint x="720" y="600" />
            </Array>
          </mxGeometry>
        </mxCell>
        <mxCell id="0x8TttNXPmQkc74vw-VQ-24" value="RC测试" style="rounded=1;whiteSpace=wrap;html=1;" vertex="1" parent="WIyWlLk6GJQsqaUBKTNV-1">
          <mxGeometry x="160" y="1260" width="120" height="40" as="geometry" />
        </mxCell>
        <mxCell id="0x8TttNXPmQkc74vw-VQ-25" value="上线" style="rounded=1;whiteSpace=wrap;html=1;" vertex="1" parent="WIyWlLk6GJQsqaUBKTNV-1">
          <mxGeometry x="160" y="1340" width="120" height="40" as="geometry" />
        </mxCell>
        <mxCell id="0x8TttNXPmQkc74vw-VQ-26" value="验收" style="rounded=1;whiteSpace=wrap;html=1;" vertex="1" parent="WIyWlLk6GJQsqaUBKTNV-1">
          <mxGeometry x="160" y="1410" width="120" height="40" as="geometry" />
        </mxCell>
      </root>
    </mxGraphModel>
  </diagram>
</mxfile>
